<svg width="663" height="663" viewBox="0 0 663 663" fill="none" xmlns="http://www.w3.org/2000/svg">
<g clip-path="url(#clip0_457_4106)">
<path d="M300.457 187.146C277.493 187.165 255.029 193.845 235.786 206.377C216.544 218.909 201.351 236.754 192.048 257.749H97.6666C108.504 212.103 134.414 171.443 171.211 142.339C208.007 113.235 253.541 97.3858 300.457 97.3528H658.898C652.055 69.5771 636.103 44.8952 613.588 27.2485C591.074 9.60174 563.296 0.00792995 534.69 -0.000934018H127.963C111.159 -0.0146416 94.5172 3.28412 78.9893 9.70673C63.4613 16.1293 49.3517 25.5498 37.4673 37.4294C25.5828 49.3091 16.1566 63.4148 9.72763 78.9401C3.2987 94.4654 -0.00684802 111.106 1.06514e-05 127.909V287.263C2.9656 286.634 5.98936 286.319 9.02101 286.324H72.0116V376.117H9.02101C5.9992 376.182 2.97816 375.955 1.06514e-05 375.439V534.897C-0.00683885 551.692 3.29526 568.324 9.71767 583.842C16.1401 599.361 25.557 613.462 37.4304 625.34C49.3038 637.219 63.4011 646.641 78.917 653.07C94.4329 659.499 111.063 662.808 127.858 662.808H534.585C551.38 662.808 568.011 659.499 583.527 653.07C599.042 646.641 613.14 637.219 625.013 625.34C636.887 613.462 646.304 599.361 652.726 583.842C659.148 568.324 662.45 551.692 662.444 534.897V187.146H300.457ZM570.774 519.515C570.78 525.412 569.624 531.254 567.37 536.704C565.116 542.154 561.809 547.106 557.639 551.276C553.469 555.447 548.517 558.754 543.066 561.007C537.616 563.261 531.775 564.418 525.877 564.411H300.457C253.541 564.378 208.007 548.529 171.211 519.425C134.414 490.321 108.504 449.661 97.6666 404.015H192.048C201.366 424.99 216.566 442.813 235.807 455.326C255.048 467.839 277.505 474.504 300.457 474.514H480.981V376.117H218.225V286.324H525.877C531.775 286.318 537.616 287.474 543.066 289.728C548.517 291.982 553.469 295.289 557.639 299.459C561.809 303.629 565.116 308.581 567.37 314.032C569.624 319.482 570.78 325.323 570.774 331.221V519.515Z" fill="#0A3254"/>
</g>
<defs>
<clipPath id="clip0_457_4106">
<rect width="662.548" height="662.6" fill="white"/>
</clipPath>
</defs>
</svg>
