<?xml version="1.0" standalone="no"?>
<!DOCTYPE svg PUBLIC "-//W3C//DTD SVG 20010904//EN"
 "http://www.w3.org/TR/2001/REC-SVG-20010904/DTD/svg10.dtd">
<svg version="1.0" xmlns="http://www.w3.org/2000/svg"
 width="442.000000pt" height="293.000000pt" viewBox="0 0 442.000000 293.000000"
 preserveAspectRatio="xMidYMid meet">

<g transform="translate(0.000000,293.000000) scale(0.100000,-0.100000)"
fill="#000000" stroke="none">
<path d="M2813 2872 c9 -4 42 -40 72 -81 31 -40 62 -79 70 -88 8 -8 20 -24 26
-35 6 -11 13 -17 16 -14 4 3 -12 27 -33 53 -22 27 -60 76 -84 110 -30 42 -52
62 -65 62 -18 0 -18 -1 -2 -7z"/>
<path d="M2695 2846 c-22 -7 -49 -18 -60 -24 -11 -6 -65 -32 -120 -57 -55 -26
-102 -49 -104 -51 -2 -2 18 -23 45 -46 27 -24 67 -63 89 -87 22 -24 53 -56 69
-70 16 -14 38 -34 48 -43 9 -10 24 -15 33 -12 12 5 15 -3 17 -42 1 -38 2 -41
5 -16 3 25 9 32 21 30 13 -2 18 -18 22 -63 l6 -60 4 49 5 50 105 -84 c58 -47
111 -90 118 -97 8 -8 30 -26 50 -41 21 -15 70 -55 111 -90 42 -35 81 -60 88
-57 8 2 12 1 9 -4 -3 -5 1 -14 9 -21 19 -16 19 -30 0 -30 -18 0 -19 -34 -4
-151 10 -84 11 -84 64 -135 l54 -51 1 -209 c1 -189 -1 -207 -15 -189 -8 11 -3
-7 11 -40 30 -71 38 -81 31 -40 -5 26 -11 155 -19 440 -2 68 -2 70 22 67 13
-1 27 3 31 10 8 12 5 101 -6 204 -4 38 -2 43 21 48 l26 7 -26 20 c-15 11 -24
25 -21 30 4 5 -1 6 -9 3 -18 -7 -22 -24 -6 -24 6 0 10 -7 10 -16 0 -10 -32 14
-82 63 -113 108 -314 302 -421 404 l-88 84 41 39 c32 30 38 41 29 52 -6 7 -9
19 -7 25 2 6 60 -53 128 -132 69 -78 136 -155 150 -170 14 -15 39 -43 55 -62
17 -19 80 -92 140 -163 61 -71 125 -143 143 -161 17 -18 32 -35 32 -39 0 -3
11 -15 25 -26 17 -13 24 -26 20 -41 -2 -12 2 -83 9 -157 7 -74 14 -125 15
-112 1 27 26 29 43 2 7 -11 16 -20 21 -20 4 0 17 -9 29 -20 18 -16 34 -20 92
-18 l71 1 -71 6 c-71 6 -85 12 -136 63 -10 9 -18 20 -18 23 0 3 26 5 58 5 31
0 64 5 72 11 11 7 -9 9 -70 7 l-85 -3 0 35 c0 24 5 35 15 36 8 1 36 2 62 2
l47 2 -37 42 c-20 23 -49 54 -63 68 -28 28 -109 143 -109 156 0 4 -10 18 -22
32 -22 23 -23 32 -25 210 -3 247 -6 257 -13 33 -5 -176 -6 -184 -22 -167 -10
10 -18 13 -18 8 0 -4 11 -19 24 -31 13 -13 27 -32 30 -44 5 -23 -44 27 -138
140 -26 32 -77 90 -111 128 -60 67 -228 259 -345 394 -30 35 -74 85 -97 110
-24 25 -46 56 -49 69 -7 25 -6 25 -59 8z m65 -46 c34 -43 33 -60 -4 -60 -13 0
-28 -6 -34 -13 -6 -7 -44 -28 -84 -46 -40 -18 -81 -38 -91 -43 -19 -9 -27 -5
-75 40 -7 6 -18 12 -23 12 -5 0 -9 5 -9 10 0 12 245 137 272 139 9 0 31 -17
48 -39z m99 -111 c13 -17 20 -33 17 -37 -8 -7 -66 55 -66 69 0 15 24 -1 49
-32z m-14 -34 l58 -66 -23 -24 c-13 -14 -29 -25 -35 -25 -6 0 -28 19 -49 43
-30 34 -36 47 -32 71 3 16 6 37 6 47 0 31 15 22 75 -46z m-56 -80 c17 -20 31
-42 31 -49 0 -20 -48 -30 -68 -14 -10 7 -30 23 -45 35 l-28 23 33 20 c18 11
36 20 39 20 4 0 21 -16 38 -35z m-129 -63 c0 -23 0 -23 -25 -5 -29 21 -32 40
-7 45 21 5 32 -9 32 -40z m38 26 c15 -15 16 -55 1 -63 -15 -10 -19 -3 -26 39
-6 37 3 46 25 24z m339 -243 c304 -292 307 -295 299 -302 -4 -4 -17 4 -29 18
-51 60 -167 151 -183 145 -9 -4 -25 2 -38 13 -11 11 -53 46 -92 78 -211 171
-212 172 -216 208 -4 34 7 45 39 41 6 0 105 -91 220 -201z m-290 163 c-3 -8
-6 -5 -6 6 -1 11 2 17 5 13 3 -3 4 -12 1 -19z m406 -329 c26 -30 15 -34 -13
-4 -13 14 -19 25 -14 25 5 0 18 -9 27 -21z m204 -263 c7 -60 12 -110 11 -112
-2 -1 -21 -4 -43 -6 l-40 -3 -12 75 c-23 145 -18 161 47 157 24 -2 25 -6 37
-111z m163 104 c0 -5 -4 -10 -10 -10 -5 0 -10 5 -10 10 0 6 5 10 10 10 6 0 10
-4 10 -10z m-126 -25 c19 -21 24 -39 29 -122 4 -53 4 -99 2 -102 -3 -3 -14 4
-24 15 -12 13 -22 48 -29 110 -18 138 -17 141 22 99z m282 -242 c-10 -10 -65
42 -65 62 0 16 6 13 35 -18 20 -21 33 -41 30 -44z m-306 6 c0 -35 -9 -36 -38
-6 -25 27 -24 31 12 33 22 2 26 -2 26 -27z m255 1 c3 -5 1 -10 -4 -10 -6 0
-11 5 -11 10 0 6 2 10 4 10 3 0 8 -4 11 -10z"/>
<path d="M3030 2614 c0 -6 7 -19 15 -30 8 -10 14 -14 14 -9 0 6 -6 19 -14 29
-8 11 -15 15 -15 10z"/>
<path d="M1653 2457 c-11 -18 -29 -48 -39 -67 -11 -19 -24 -40 -31 -47 -6 -7
-32 -52 -59 -99 -26 -48 -57 -102 -70 -121 -12 -19 -24 -39 -27 -46 -3 -9 -14
-9 -52 1 -61 16 -70 8 -16 -15 l41 -18 -6 -95 c-4 -52 -8 -97 -10 -98 -1 -2
-28 2 -59 8 -87 18 -302 26 -515 18 -200 -7 -406 -30 -424 -48 -6 -6 -17 -10
-26 -10 -8 0 -27 -6 -42 -14 -15 -8 -28 -12 -31 -10 -2 2 8 41 24 86 40 118
66 139 244 194 46 14 54 20 35 22 -40 5 -188 -57 -232 -96 -30 -27 -42 -49
-59 -106 -11 -39 -29 -93 -38 -121 -29 -80 -7 -110 105 -149 38 -12 99 -29
135 -36 58 -12 71 -11 100 2 50 23 669 232 673 227 3 -4 -27 -457 -41 -624
l-8 -90 -190 -32 c-104 -18 -248 -41 -320 -53 -71 -11 -147 -24 -169 -29 -21
-5 -45 -7 -52 -4 -8 3 -14 -1 -14 -11 0 -9 5 -16 10 -16 6 0 44 -16 86 -36 66
-32 75 -39 69 -58 -18 -54 -28 -114 -22 -129 8 -22 43 -22 51 -1 3 9 6 34 6
57 0 43 29 118 57 149 9 10 29 18 45 18 l28 0 -32 -56 c-26 -47 -31 -66 -30
-113 4 -129 0 -236 -9 -247 -6 -8 -57 -15 -128 -19 -66 -4 -123 -10 -129 -14
-9 -6 -55 -211 -68 -306 -13 -99 -8 -95 -141 -95 -65 0 -124 -4 -132 -9 -27
-17 440 -26 1419 -26 1257 0 1663 13 2130 70 409 50 577 78 644 110 46 22 40
30 -10 16 -79 -21 -268 -43 -272 -31 -3 7 -8 8 -16 1 -9 -7 -51 -7 -132 0
-221 19 -201 12 -213 72 -9 41 -41 389 -41 437 0 6 25 10 57 10 74 0 64 8 -15
13 -53 3 -62 1 -58 -12 5 -15 13 -105 36 -384 6 -65 13 -129 16 -142 8 -30 8
-30 -237 -61 -112 -14 -223 -28 -246 -31 l-42 -5 -4 48 -3 49 -2 -47 -2 -48
-77 1 c-43 0 -157 6 -253 12 l-175 12 -6 205 c-3 113 -7 277 -8 365 l-1 161
123 18 c187 28 217 33 183 35 -18 1 -39 13 -58 34 -30 31 -29 19 0 -15 8 -10
13 -18 11 -19 -2 0 -11 -2 -19 -4 -8 -1 -49 -8 -91 -16 l-77 -13 -26 30 c-14
16 -26 34 -26 39 0 6 -9 28 -20 50 -15 30 -19 62 -20 129 0 77 3 94 22 122 23
33 55 54 86 54 16 1 16 1 0 13 -22 17 -115 190 -110 205 5 17 122 15 166 -3
20 -8 36 -12 36 -8 0 15 -54 33 -97 33 -24 0 -43 5 -43 10 0 6 5 10 12 10 6 0
9 2 6 5 -2 3 -26 -2 -51 -11 -50 -17 -93 -10 -145 23 -13 8 -26 12 -29 9 -4
-3 21 -18 53 -32 32 -15 61 -28 63 -30 5 -5 27 -518 22 -534 -1 -2 -20 -4 -44
-3 l-42 2 46 -11 46 -10 7 -156 c3 -87 9 -279 12 -428 l7 -271 -49 -7 c-27 -3
-130 -11 -229 -16 -99 -5 -219 -12 -266 -16 l-86 -6 -6 62 c-4 35 -7 263 -7
506 l0 444 28 0 c15 0 52 -7 82 -15 30 -8 64 -15 75 -14 29 1 -62 28 -120 35
-27 4 -53 12 -57 17 -3 6 -7 78 -7 161 -1 83 -6 155 -11 160 -7 7 -10 -49 -10
-156 l0 -165 -72 -11 c-40 -7 -97 -15 -125 -18 -29 -4 -53 -11 -53 -16 0 -4
-11 -13 -24 -18 -42 -16 -94 -70 -110 -113 -24 -69 -29 -132 -11 -147 26 -22
45 5 45 64 0 52 27 125 58 159 23 26 106 67 134 67 18 0 14 -5 -19 -21 -70
-35 -113 -115 -113 -212 0 -44 2 -48 23 -45 19 3 23 11 29 70 8 80 29 128 75
169 39 34 60 43 118 53 l40 6 -31 -14 c-87 -39 -170 -163 -147 -221 5 -15 17
-17 95 -10 l88 7 0 -391 0 -391 -460 0 -460 0 0 33 c1 17 7 160 15 317 7 157
10 289 6 293 -5 5 -11 -63 -15 -150 -4 -87 -9 -192 -12 -234 -6 -76 -7 -77
-36 -83 -17 -3 -73 -6 -124 -6 l-94 0 1 38 c2 135 27 396 38 400 8 3 5 10 -9
19 -19 14 -22 23 -18 67 8 93 64 176 119 176 l31 0 -30 -34 c-34 -39 -47 -75
-60 -158 -9 -55 -8 -58 12 -57 39 2 72 14 58 23 -20 12 -14 87 12 141 27 60
77 105 114 105 l26 0 -31 -32 c-42 -45 -52 -67 -67 -148 l-14 -70 23 0 c43 0
51 8 47 48 -9 92 62 204 138 219 l35 6 -46 -50 c-36 -38 -49 -62 -58 -102 -15
-69 -14 -86 4 -101 25 -21 42 4 47 68 7 100 70 184 148 198 l35 6 -38 -32
c-52 -44 -80 -103 -81 -170 -1 -49 1 -55 20 -58 19 -3 22 3 29 55 12 104 58
177 130 209 17 7 23 13 14 14 -13 0 -14 8 -7 52 4 29 12 139 18 243 11 210 14
235 34 235 7 0 31 13 52 28 111 79 185 117 310 158 73 24 135 44 139 44 3 0 5
-29 5 -65 0 -37 4 -65 10 -65 6 0 10 26 10 59 0 33 4 62 10 66 5 3 26 -1 46
-10 20 -8 39 -13 42 -10 3 2 -8 9 -24 15 -16 6 -41 17 -55 24 -24 12 -40 9
-155 -30 l-128 -44 -44 23 -44 22 5 87 c2 48 0 85 -4 82 -5 -3 -9 -43 -9 -88
0 -82 -1 -84 -36 -122 -19 -22 -39 -44 -42 -50 -4 -5 -32 -19 -62 -31 -54 -20
-55 -21 -60 -66 -6 -47 -32 -87 -57 -87 -9 0 -12 7 -9 18 3 9 10 60 16 112 46
396 47 405 79 452 37 56 129 210 161 271 17 32 39 66 50 77 11 11 16 21 12 24
-4 2 -17 -10 -29 -27z m1001 -1032 c39 -70 43 -85 24 -85 -6 0 -22 -10 -35
-22 -13 -12 -25 -20 -27 -17 -8 9 -14 189 -6 189 4 0 24 -29 44 -65z m-1872
-1030 c-16 -259 -18 -280 -36 -283 -18 -4 -18 2 -13 100 10 207 39 503 51 517
18 23 17 -25 -2 -334z m258 -192 c0 -32 -4 -64 -8 -71 -7 -9 -39 -12 -128 -10
l-119 3 0 58 c0 40 5 61 15 67 8 6 66 10 128 10 l112 0 0 -57z"/>
<path d="M1728 2440 c18 -11 38 -20 45 -20 6 0 -5 9 -26 20 -48 26 -62 26 -19
0z"/>
<path d="M3170 2425 c40 -48 43 -51 32 -30 -6 11 -21 29 -34 40 -22 19 -22 19
2 -10z"/>
<path d="M2683 2295 c0 -38 2 -53 4 -32 2 20 2 52 0 70 -2 17 -4 1 -4 -38z"/>
<path d="M2728 2191 c4 -86 3 -103 -9 -99 -9 3 -16 26 -20 64 l-6 59 -1 -62
c-2 -49 -5 -63 -17 -63 -27 0 -44 -79 -29 -135 3 -11 25 -33 50 -50 39 -27 44
-35 46 -70 l1 -40 4 38 c3 25 9 37 19 37 9 0 23 8 32 17 23 23 23 130 0 147
-8 6 -18 20 -21 31 -4 18 -5 18 -6 -2 -1 -26 -16 -30 -25 -7 -3 9 -7 52 -7 97
-1 45 -5 96 -9 112 -4 17 -5 -17 -2 -74z m0 -131 c10 -17 10 -20 -4 -20 -11 0
-14 -5 -10 -16 3 -9 6 -20 6 -25 0 -18 29 -9 35 12 8 24 38 22 43 -4 3 -13 -1
-15 -14 -10 -17 6 -17 5 -1 -17 20 -29 22 -79 3 -86 -22 -8 -85 35 -93 65 -13
52 -5 121 14 121 5 0 14 -9 21 -20z"/>
<path d="M3307 2246 c10 -13 19 -23 21 -21 5 5 -22 45 -31 45 -4 0 0 -11 10
-24z"/>
<path d="M3250 2158 c0 -12 144 -168 155 -168 15 0 -2 24 -65 90 -38 40 -70
77 -70 82 0 4 -4 8 -10 8 -5 0 -10 -6 -10 -12z"/>
<path d="M3380 2156 c0 -4 7 -14 15 -22 8 -9 15 -11 15 -6 0 5 -7 15 -15 22
-8 7 -15 9 -15 6z"/>
<path d="M708 2113 c7 -3 16 -2 19 1 4 3 -2 6 -13 5 -11 0 -14 -3 -6 -6z"/>
<path d="M2105 1780 c3 -5 10 -10 16 -10 5 0 9 5 9 10 0 6 -7 10 -16 10 -8 0
-12 -4 -9 -10z"/>
<path d="M2752 1708 c-2 -65 -5 -78 -19 -78 -9 0 -14 -2 -12 -3 2 -2 40 -1 84
3 l80 7 -62 1 -62 2 -4 73 -3 72 -2 -77z"/>
<path d="M2898 1623 c6 -2 18 -2 25 0 6 3 1 5 -13 5 -14 0 -19 -2 -12 -5z"/>
<path d="M3027 1579 c7 -7 15 -10 18 -7 3 3 -2 9 -12 12 -14 6 -15 5 -6 -5z"/>
<path d="M1002 1520 c0 -14 2 -19 5 -12 2 6 2 18 0 25 -3 6 -5 1 -5 -13z"/>
<path d="M930 1470 c-18 -12 -2 -12 25 0 13 6 15 9 5 9 -8 0 -22 -4 -30 -9z"/>
<path d="M3210 1443 c13 -18 28 -33 32 -33 5 0 13 -11 20 -24 6 -14 18 -28 26
-31 18 -7 1 16 -62 80 -34 35 -36 36 -16 8z"/>
<path d="M586 1449 c-12 -37 -77 -401 -74 -411 2 -6 17 56 32 138 16 82 34
178 41 214 8 36 12 67 10 69 -3 2 -7 -2 -9 -10z"/>
<path d="M759 1447 c5 -5 24 -7 42 -5 33 3 33 4 -8 8 -23 3 -39 2 -34 -3z"/>
<path d="M990 1447 c0 -8 -8 -18 -17 -20 -17 -4 -17 -5 0 -6 18 -1 35 25 23
36 -3 4 -6 -1 -6 -10z"/>
<path d="M857 1426 c-8 -20 -51 -47 -90 -56 -24 -6 -27 -8 -9 -9 39 -2 127 58
110 74 -3 3 -8 -1 -11 -9z"/>
<path d="M895 1410 c-3 -6 1 -7 9 -4 18 7 21 14 7 14 -6 0 -13 -4 -16 -10z"/>
<path d="M2740 1348 c0 -4 5 -8 11 -8 6 0 9 -9 6 -20 -3 -11 -1 -20 4 -20 5 0
9 9 9 20 0 23 28 27 62 9 18 -10 38 -6 27 6 -9 9 -119 22 -119 13z"/>
<path d="M940 1341 c0 -5 9 -7 20 -4 11 3 20 7 20 9 0 2 -9 4 -20 4 -11 0 -20
-4 -20 -9z"/>
<path d="M975 1305 c-22 -22 -43 -48 -47 -57 -4 -10 -13 -18 -19 -18 -7 0 -10
-2 -7 -5 9 -9 38 7 38 21 0 7 11 21 24 29 23 15 62 64 54 68 -2 1 -21 -16 -43
-38z"/>
<path d="M867 1319 c4 -13 8 -18 11 -10 2 7 -1 18 -6 23 -8 8 -9 4 -5 -13z"/>
<path d="M3305 1330 c3 -5 8 -10 11 -10 2 0 4 5 4 10 0 6 -5 10 -11 10 -5 0
-7 -4 -4 -10z"/>
<path d="M2870 1316 c0 -3 14 -12 30 -21 17 -9 30 -11 30 -6 0 5 -8 11 -17 15
-10 3 -24 9 -30 12 -7 3 -13 3 -13 0z"/>
<path d="M783 1300 c-13 -5 -23 -15 -23 -22 0 -10 2 -10 9 1 5 8 22 14 39 15
17 0 28 4 25 9 -5 9 -22 8 -50 -3z"/>
<path d="M3320 1301 c0 -5 7 -15 17 -22 15 -13 15 -12 4 9 -12 23 -21 28 -21
13z"/>
<path d="M870 1274 c0 -9 -16 -32 -36 -50 -37 -36 -79 -44 -104 -21 -12 10
-12 9 -1 -5 23 -31 69 -22 112 21 33 33 51 71 34 71 -3 0 -5 -7 -5 -16z"/>
<path d="M2940 1275 c0 -3 21 -27 48 -53 26 -27 59 -69 74 -93 27 -46 54 -136
43 -148 -4 -3 -36 -11 -73 -18 l-67 -12 65 6 c36 3 83 5 105 4 44 -2 226 -30
238 -38 4 -2 7 0 7 6 0 5 -10 11 -22 13 -18 2 -27 15 -40 57 -10 30 -23 60
-29 65 -6 7 -6 0 2 -19 18 -48 28 -95 18 -95 -4 0 -43 5 -86 11 -74 11 -105
22 -101 37 5 17 -37 120 -58 145 -13 16 -24 32 -24 37 0 8 -88 100 -96 100 -2
0 -4 -2 -4 -5z"/>
<path d="M750 1251 c0 -6 4 -13 10 -16 6 -3 7 1 4 9 -7 18 -14 21 -14 7z"/>
<path d="M3660 1147 l5 -62 3 54 c2 30 0 58 -5 62 -4 4 -6 -20 -3 -54z"/>
<path d="M3415 1105 c3 -16 8 -67 12 -112 l6 -82 69 -11 c38 -7 71 -10 74 -7
3 2 -12 8 -33 11 -97 17 -98 19 -99 93 -1 40 -8 82 -18 103 -16 35 -16 35 -11
5z"/>
<path d="M1583 1081 c1 -5 -18 -23 -41 -41 -54 -39 -85 -103 -86 -180 -1 -48
1 -55 19 -55 16 0 21 11 31 71 17 97 45 149 101 185 l47 29 -37 0 c-20 0 -36
-4 -34 -9z"/>
<path d="M2210 1084 c33 -9 237 -46 270 -50 64 -7 -57 24 -157 41 -85 14 -152
19 -113 9z"/>
<path d="M1457 1052 c-101 -92 -121 -130 -115 -215 2 -34 7 -42 23 -42 17 0
21 9 27 61 10 97 35 143 102 188 l39 26 -29 -1 c-16 0 -37 -8 -47 -17z"/>
<path d="M2810 1065 c0 -5 5 -17 10 -25 5 -8 10 -10 10 -5 0 6 -5 17 -10 25
-5 8 -10 11 -10 5z"/>
<path d="M3671 1044 c0 -11 3 -14 6 -6 3 7 2 16 -1 19 -3 4 -6 -2 -5 -13z"/>
<path d="M3682 920 c0 -19 4 -46 8 -60 8 -24 8 -24 8 5 0 17 -4 44 -8 60 l-8
30 0 -35z"/>
<path d="M3603 883 c10 -3 17 -15 18 -31 0 -15 5 -36 10 -47 7 -16 8 -12 4 14
-3 18 -5 42 -5 52 0 13 -7 19 -22 18 -17 -1 -19 -2 -5 -6z"/>
<path d="M3702 810 c0 -14 2 -19 5 -12 2 6 2 18 0 25 -3 6 -5 1 -5 -13z"/>
<path d="M1620 745 c-91 -13 -216 -31 -279 -39 -63 -9 -115 -17 -117 -18 -1
-2 -6 -110 -10 -241 l-7 -237 312 0 311 0 0 78 c0 42 3 168 7 280 l6 202 -29
-1 c-16 -1 -103 -12 -194 -24z m180 -69 l0 -73 -82 -7 c-46 -3 -111 -9 -145
-13 l-63 -6 0 67 c0 36 1 66 3 67 12 3 247 37 265 38 21 1 22 -3 22 -73z
m-340 -41 l0 -65 -47 -2 -48 -2 48 -3 48 -4 -3 -82 -3 -82 -100 -6 -100 -5
103 -2 102 -2 0 -80 0 -80 -112 0 -111 0 6 107 c4 58 7 132 7 165 l0 58 48 2
47 2 -48 3 -48 4 3 57 3 57 65 11 c36 7 82 12 103 13 l37 1 0 -65z m340 -129
c0 -47 -4 -88 -10 -91 -5 -3 -73 -9 -150 -12 l-140 -6 0 82 c0 56 4 83 13 86
11 4 187 20 260 24 l27 1 0 -84z m-10 -201 l0 -85 -150 0 -150 0 0 33 c0 17 3
56 6 85 l7 52 143 0 144 0 0 -85z"/>
<path d="M3870 760 c58 -3 109 -2 115 2 5 5 -43 7 -105 6 l-115 -2 105 -6z"/>
<path d="M4068 763 c6 -2 18 -2 25 0 6 3 1 5 -13 5 -14 0 -19 -2 -12 -5z"/>
<path d="M3971 728 c0 -7 4 -22 9 -33 8 -18 9 -17 9 7 1 15 -3 30 -9 33 -5 3
-10 0 -9 -7z"/>
<path d="M4002 485 c-1 -11 3 -38 7 -60 7 -34 9 -35 9 -10 0 35 -15 101 -16
70z"/>
<path d="M3144 365 c0 -71 1 -99 3 -62 2 37 2 96 0 130 -2 34 -3 4 -3 -68z"/>
<path d="M4346 390 c3 -30 7 -57 10 -59 10 -11 10 8 -2 59 l-13 55 5 -55z"/>
<path d="M4022 330 c0 -14 4 -36 8 -50 l8 -25 0 25 c0 14 -4 36 -8 50 l-8 25
0 -25z"/>
</g>
</svg>
