<svg xmlns="http://www.w3.org/2000/svg" viewBox="0 0 354.94 232.63"><defs><style>.cls-1{isolation:isolate;}.cls-2{fill:#ec584a;}.cls-11,.cls-3{fill:#f5f5f5;}.cls-4{fill:#149b6a;}.cls-21,.cls-5{fill:#eaebf4;}.cls-11,.cls-30,.cls-5{opacity:0.1;}.cls-6{fill:#424242;}.cls-10,.cls-7,.cls-9{fill:none;}.cls-7{stroke:#d6443c;}.cls-16,.cls-7,.cls-9{stroke-miterlimit:10;}.cls-8{fill:#c43d35;}.cls-10,.cls-12,.cls-13,.cls-14,.cls-15,.cls-16,.cls-17,.cls-36,.cls-9{stroke:#424242;}.cls-10,.cls-12,.cls-13,.cls-14,.cls-15,.cls-16,.cls-17,.cls-36{stroke-linecap:round;}.cls-10,.cls-12,.cls-13,.cls-14,.cls-15,.cls-17,.cls-36{stroke-linejoin:round;}.cls-12{fill:#a7bee2;}.cls-13,.cls-23{fill:#168aca;}.cls-14,.cls-16,.cls-31{fill:#0060ac;}.cls-15,.cls-32{fill:#005191;}.cls-17,.cls-18{fill:#851716;}.cls-19{fill:#ec6f63;}.cls-20{fill:#b6e3f2;}.cls-22{fill:#e3f3f0;mix-blend-mode:screen;opacity:0.6;}.cls-24{fill:#b4e2ee;}.cls-25{fill:#fadce9;mix-blend-mode:hard-light;opacity:0.35;}.cls-26{fill:#e0e0e0;}.cls-27{fill:#bdbdbd;}.cls-28{fill:#c9c9c9;}.cls-29{fill:#e8e8e8;}.cls-30,.cls-35{fill:#fff;}.cls-33{fill:#add167;}.cls-34{fill:#1ab582;}.cls-36{fill:#75a0d4;}</style></defs><g class="cls-1"><g id="Layer_2" data-name="Layer 2"><g id="Layer_1-2" data-name="Layer 1"><polygon class="cls-2" points="302.68 97.76 314.98 112.5 304.38 103.91 302.68 97.76"/><path class="cls-3" d="M0,229l19.58-98.75,23.59.95,18.37-25,2.75-42.44,4.43-27.66s26-15.22,37-23.56L156,35.32l.37,34.3,16.16,3.95,22.36-1.43,4.3,44.15-5.35,68.49,82.39,5-4.88-44.94,13.92-14.62,22.49,1.13L312.38,154l12.31,3,6.57,18.21,5.89,33.28L25.52,229Z"/><path class="cls-4" d="M109.5,67.91l-1.91,18.62L58,87.5,13.57,95.67s3.85-16,6.06-19.59c2.06-3.33,12.17-8.79,21.84-10.8.69-.15,1.38-.27,2.07-.38,2.29-.36,4.82-.69,7.5-1a184.3,184.3,0,0,1,24.64-1c2.08,0,4.15.15,6.18.3A169.91,169.91,0,0,1,105,66.84C107.79,67.46,109.5,67.91,109.5,67.91Z"/><path class="cls-5" d="M105,66.84c-4.19,8-21.24,17.41-21.24,17.41l-47,4.24,4.7-23.21c.69-.15,1.38-.27,2.07-.38,2.29-.36,4.82-.69,7.5-1a184.3,184.3,0,0,1,24.64-1c2.08,0,4.15.15,6.18.3A169.91,169.91,0,0,1,105,66.84Z"/><path class="cls-5" d="M75.68,62.88,74.43,84.25l-26.54.55L51,63.92A184.3,184.3,0,0,1,75.68,62.88Z"/><path class="cls-6" d="M49.54,166.88l-17.92-10.1,62.3-10.18,3.84-58.46L41.49,107s-15.78-.6-22.67-4.17-13.21-15,23.69-18.55,65.09,2.21,65.09,2.21l-2.43,27.3,5.42-5.55s-2,43.46-2,43.21S49.54,166.88,49.54,166.88Z"/><polygon class="cls-2" points="156.32 229.86 155.92 144.79 55.77 158.53 51.89 228.69 156.32 229.86"/><path class="cls-7" d="M296.48,93.39C287.54,69.78,280,39.2,280,39.2S251.68,26.92,237.33,16"/><polygon class="cls-8" points="216.69 2.42 190.95 15.14 290.7 100.25 300.17 98.22 216.69 2.42"/><polygon class="cls-2" points="280.41 77.86 268.82 79.52 273.1 162.8 286.13 175.37 297.94 174.9 288 85.55 280.41 77.86"/><polygon class="cls-8" points="280.82 41.86 283.38 76.24 279.54 71.22 280.01 39.2 280.82 41.86"/><polygon class="cls-8" points="272.92 79.5 277.08 78.59 281.71 171.11 275.92 165.52 272.79 99.81 272.92 79.5"/><polygon class="cls-8" points="225.57 0.55 300.17 98.22 216.69 2.42 225.57 0.55"/><line class="cls-9" x1="275.88" y1="66.42" x2="300.17" y2="98.22"/><line class="cls-9" x1="271.34" y1="60.48" x2="274.5" y2="64.61"/><line class="cls-9" x1="262.93" y1="49.47" x2="268.31" y2="56.51"/><line class="cls-9" x1="252.68" y1="36.06" x2="257.88" y2="42.85"/><line class="cls-9" x1="242.45" y1="22.66" x2="246.17" y2="27.53"/><polyline class="cls-9" points="216.69 2.42 225.57 0.55 240.73 20.41"/><polygon class="cls-2" points="277.49 78.41 274.53 79.28 267.55 75.04 200.32 14.75 212.57 8.9 277.49 78.41"/><polygon class="cls-8" points="304.38 103.91 314.98 112.5 301.56 114.56 290.41 107.22 304.38 103.91"/><polygon class="cls-2" points="302.68 97.76 304.38 103.91 290.41 107.22 288.79 100.64 292.99 99.5 300.17 98.22 302.68 97.76"/><line class="cls-10" x1="304.38" y1="103.91" x2="290.41" y2="107.22"/><polyline class="cls-10" points="314.98 112.5 301.56 114.56 290.41 107.22 289.85 101.95 289.73 100.45 302.68 97.76"/><polygon class="cls-8" points="282.71 82.55 282.66 90.49 287.18 86.79 282.71 82.55"/><polygon class="cls-8" points="287.18 91.07 288.14 99.81 282.66 94.44 287.18 91.07"/><polygon class="cls-8" points="283.38 98.43 284.06 107.22 288.53 102.83 283.38 98.43"/><polygon class="cls-8" points="288.53 106 284.06 108.97 289.6 114.54 288.53 106"/><polygon class="cls-8" points="284.55 113.43 285.4 122.66 289.42 117.47 284.55 113.43"/><polygon class="cls-8" points="289.6 121.48 285.4 125.69 290.41 130.12 289.6 121.48"/><polygon class="cls-8" points="285.9 129.99 286.57 140.36 291.67 133.9 285.9 129.99"/><polygon class="cls-8" points="291.67 138 286.83 142.83 292.29 149.37 291.67 138"/><polygon class="cls-8" points="287.2 148.43 288.22 160.31 293.36 153.25 287.2 148.43"/><polygon class="cls-8" points="293.56 157.04 288.79 164.68 293.97 169.74 293.56 157.04"/><polyline class="cls-11" points="278.06 78.19 283.27 172.61 286.13 175.37 280.41 77.86"/><line class="cls-12" x1="251.06" y1="60" x2="271.96" y2="79.07"/><line class="cls-12" x1="226.51" y1="31.45" x2="274.26" y2="78.74"/><line class="cls-12" x1="261.51" y1="61.26" x2="277.37" y2="78.29"/><polygon class="cls-13" points="260.9 75.63 262.48 95.44 270.68 93.64 269.62 74.86 260.9 75.63"/><polygon class="cls-14" points="269.62 74.86 274.52 79.07 275.6 98.22 270.68 93.64 269.62 74.86"/><polygon class="cls-15" points="275.6 98.22 269.94 101.41 262.48 95.44 270.68 93.64 275.6 98.22"/><line class="cls-16" x1="280.01" y1="39.2" x2="279.54" y2="71.22"/><polygon class="cls-17" points="220.85 12.61 232.57 25.45 227.06 31.18 220.45 22.44 220.85 12.61"/><polygon class="cls-2" points="220.44 22.44 227.06 31.18 215.18 37.16 206.66 29.78 220.44 22.44"/><polygon class="cls-18" points="220.84 12.61 220.44 22.44 206.66 29.78 200.72 24.65 220.84 12.61"/><polygon class="cls-10" points="220.44 22.44 220.84 12.61 200.72 24.65 206.66 29.78 215.18 37.16 227.06 31.18 220.44 22.44"/><line class="cls-10" x1="220.45" y1="22.44" x2="206.66" y2="29.78"/><polyline class="cls-10" points="221.4 72.97 221.4 34.51 212.96 26.42 214.87 65.47"/><path class="cls-19" d="M222.63,76.86c-1.07,1-.07-.83-.41-1.22s-.26-.66-.1-.78C223.37,73.92,223.71,75.89,222.63,76.86Z"/><path class="cls-19" d="M217,74.57c-.41.55.93,3.13-.46,1.72s-1.07-4.2.53-2.83C217.27,73.64,217.4,74,217,74.57Z"/><path class="cls-2" d="M225.2,74.54c0,2.07.13,6.89-1.75,8.77-9.8-1.87-11.35-11.31-10.12-13.92s4.81-2.68,4.81-2.68a13.16,13.16,0,0,1,1,3.06l2.3.46C223.67,67.87,225.2,72.17,225.2,74.54Zm-8.67,1.75c1.39,1.41.05-1.17.46-1.72s.28-.93.07-1.11C215.46,72.09,215.14,74.88,216.53,76.29Zm6.1.57c1.08-1,.74-2.94-.51-2-.16.12-.25.39.1.78S221.56,77.84,222.63,76.86Z"/><path class="cls-18" d="M213.31,66a4,4,0,0,1,4.7.56,1.56,1.56,0,0,1,.13.19s-3.58.07-4.81,2.68.32,12,10.12,13.92a2.76,2.76,0,0,1-2.84.65c-4.84-1.23-10-3.93-10.43-9.38S211.38,67.05,213.31,66Z"/><path class="cls-10" d="M223.45,83.31c1.88-1.88,1.75-6.7,1.75-8.77,0-2.37-1.53-6.67-3.81-4.31l-2.3-.46a13.16,13.16,0,0,0-1-3.06,1.56,1.56,0,0,0-.13-.19,4,4,0,0,0-4.7-.56c-1.93,1.09-3.55,3.18-3.13,8.62s5.59,8.15,10.43,9.38A2.76,2.76,0,0,0,223.45,83.31Z"/><path class="cls-10" d="M218.14,66.71s-3.58.07-4.81,2.68.32,12,10.12,13.92"/><line class="cls-10" x1="217.18" y1="30.47" x2="218.29" y2="72.04"/><line class="cls-10" x1="217.02" y1="71.8" x2="219.35" y2="72.66"/><line class="cls-10" x1="220.67" y1="72.52" x2="222.14" y2="73.43"/><line class="cls-10" x1="219.17" y1="83.55" x2="219.35" y2="103.95"/><polygon class="cls-6" points="55.77 229.65 59.73 163.54 82.39 160.18 79.33 229.65 55.77 229.65"/><polygon class="cls-20" points="57.61 227.5 58.03 217.39 78.2 216.47 77.8 227.5 57.61 227.5"/><polygon class="cls-20" points="80.08 175.65 78.29 214.13 58.11 215.05 60.45 178.81 80.08 175.65"/><path class="cls-8" d="M89.49,221l53.92.16,1.28-48.28L91.1,180.28Z"/><path class="cls-6" d="M93.77,181.38l50.88-6.85-1.24,46.66-51-.15Z"/><path class="cls-21" d="M112.91,190.4l.13-10.16-16.52,2.18-.29,9.5ZM95.8,206.06l16.92-.84.17-13.31L96.2,193.16Zm21.88-26.43L117.24,190l23.65-2.16.36-11.32Zm23.15,10.18-23.66,1.77L116.6,205l23.79-1.17Zm-28.13,17-16.94.55-.36,12.1h17.13Zm3.82-.12L116,219.45H139.9l.42-13.54Z"/><path class="cls-20" d="M98.65,208.9l14-.41-.15,11H98.38Zm21-.62,20.63-.6-.37,11.86H119.25ZM99,194.53l13.84-1-.15,11.81-14,.68ZM120.26,193l20.56-1.49L140.43,204l-20.63,1Zm-21-9.37L113,181.87l-.11,8.66-13.81,1.26Zm21.42-2.76,20.52-2.64-.31,9.74-20.55,1.88Z"/><polygon class="cls-22" points="104.84 194.11 100 205.96 111.78 205.38 112.72 204.03 112.86 193.53 104.84 194.11"/><polygon class="cls-22" points="120.26 193 120.25 193.23 120.42 192.99 120.26 193"/><polygon class="cls-22" points="101.92 219.54 109.56 208.58 98.8 208.89 98.64 209.28 98.38 219.54 101.92 219.54"/><polygon class="cls-22" points="106.05 191.16 112.9 190.53 113.01 181.87 109.67 182.3 106.05 191.16"/><polygon class="cls-22" points="120.72 180.87 120.38 189.85 122.76 189.63 129.66 179.72 120.72 180.87"/><polygon class="cls-23" points="97.77 88.14 41.49 107.04 31.62 156.78 93.92 146.6 97.77 88.14"/><polygon class="cls-6" points="42.96 108.77 95.29 91.38 91.46 143.63 34.38 153.29 42.96 108.77"/><polygon class="cls-24" points="35.78 153.05 43.89 110.03 95.16 93.08 91.46 143.63 35.78 153.05"/><polygon class="cls-22" points="54.55 106.5 36.7 148.16 35.78 153.05 40.37 152.15 73.76 100.16 54.55 106.5"/><polygon class="cls-22" points="43.54 151.74 80.82 97.82 86.52 95.94 45.43 151.41 43.54 151.74"/><path class="cls-6" d="M55.62,115.26a4.57,4.57,0,0,0-.83,2.49c.08,2.2,2.33,2,3.41,1.89a8,8,0,0,1,2.61.08,1.65,1.65,0,0,1,.34.12,5.49,5.49,0,0,1-1.14.74,16.6,16.6,0,0,1-4.58,1.28,1.13,1.13,0,0,0-.6.39,1.76,1.76,0,0,0-.37.75L54,125.53c-.11.54.13.92.53.87h0a20,20,0,0,0,5.57-1.67c2.87-1.46,4.8-4,4.83-6.33a2.86,2.86,0,0,0-1.86-2.84,1.57,1.57,0,0,0,.36-.61l.73-2.38c.16-.51,0-.95-.4-1a6.59,6.59,0,0,0-1.25,0,10.86,10.86,0,0,0-3.37,1A7.94,7.94,0,0,0,55.62,115.26Z"/><path class="cls-6" d="M76.41,108.24a.42.42,0,0,0-.4-.17l-1.81.38a1.26,1.26,0,0,0-.82,1l-.4,3.2a26.62,26.62,0,0,1-3.43.81l.26-3a.7.7,0,0,0-.16-.57.43.43,0,0,0-.37-.14l-.11,0-1.82.53a1.07,1.07,0,0,0-.54.42,1.37,1.37,0,0,0-.28.7l-1,10.41a.79.79,0,0,0,.16.61.44.44,0,0,0,.39.14l.11,0,1.89-.6a1.43,1.43,0,0,0,.83-1.19l.27-3.15a29.6,29.6,0,0,0,3.25-.8L72,120.41c-.06.5.18.84.55.8l1.88-.45a1.33,1.33,0,0,0,.84-1.12l1.27-10.82A.78.78,0,0,0,76.41,108.24Z"/><path class="cls-6" d="M60,126.9h0a11.28,11.28,0,0,0-5.54,2.76c-1.71,1.75-2.31,4.53-2.52,6-.31,2.26.29,4.06,1.66,4.92a4.36,4.36,0,0,0,3.18.47,10.64,10.64,0,0,0,4.5-2.17,12.24,12.24,0,0,0,3.81-5c.83-2.19.69-4.35-.37-5.65S62.18,126.56,60,126.9Zm.19,8.32a6.3,6.3,0,0,1-2.59,1.21,2,2,0,0,1-1.43-.18,1.48,1.48,0,0,1-.51-1.49,7.45,7.45,0,0,1,.53-2.09,7.44,7.44,0,0,1,3.1-1.36l.1,0a2.6,2.6,0,0,1,2.4.57,1.27,1.27,0,0,1,.11,1.29A5.42,5.42,0,0,1,60.22,135.22Z"/><path class="cls-6" d="M73.79,123.5c-.51,0-1,.08-1.52.16a19.9,19.9,0,0,0-5.84,1.92,1.23,1.23,0,0,0-.53.53,1.27,1.27,0,0,0-.18.74l.18,2.23c0,.41.3.63.64.58a.65.65,0,0,0,.22-.08l.59-.29c-.3,2.55-.48,5.12-.56,7.67,0,.49.27.79.65.72l.13,0,2-.74a1.45,1.45,0,0,0,.81-1.26c0-.5,0-1,0-1.49a17.21,17.21,0,0,0,5.28-4.32c1.51-1.85,1.67-3.3,1.54-4.18C77.09,124.57,76.36,123.34,73.79,123.5Zm-3.08,6.2c.05-.54.11-1.07.17-1.61l.78-.15c.43-.07.86-.12,1.28-.15h.22A12.08,12.08,0,0,1,70.71,129.7Z"/><path class="cls-23" d="M62.07,116.08a9.22,9.22,0,0,0-3.19-.13c-.42,0-.72,0-1,0a8.45,8.45,0,0,1,4.63-1.35l.74-2.37a10.06,10.06,0,0,0-5.64,1.62c-2.08,1.29-2.26,2.65-2.25,3.17.06,1.57,1.89,1.41,2.87,1.32a8.48,8.48,0,0,1,2.77.09c.79.22,1,.66,1,.82a4.56,4.56,0,0,1-2.22,1.92,17.78,17.78,0,0,1-4.8,1.36l-.51,2.52a19.15,19.15,0,0,0,5.35-1.57c2.43-1.23,4.07-3.27,4.09-5.07A2.37,2.37,0,0,0,62.07,116.08Z"/><path class="cls-23" d="M73.93,109.09l-.51,4a28,28,0,0,1-4.83,1.14l.34-3.77L67.1,111l-1,10.37,1.88-.59.37-4.2a29.3,29.3,0,0,0,4.75-1.15l-.57,4.5,1.82-.43,1.3-10.82Z"/><path class="cls-23" d="M59.68,127.6a10.41,10.41,0,0,0-5,2.46c-1.39,1.42-1.89,3.83-2.08,5.16-.26,1.9.25,3.41,1.41,4.14a3.8,3.8,0,0,0,2.78.4,9.63,9.63,0,0,0,4.08-1.94,10.77,10.77,0,0,0,3.35-4.37,4.83,4.83,0,0,0-.3-4.69C63.07,127.71,61.58,127.26,59.68,127.6ZM62.44,133a6.75,6.75,0,0,1-2.18,2.72c-1.43,1.13-3.62,1.94-4.82,1.17a2.27,2.27,0,0,1-.77-2.24,6.55,6.55,0,0,1,1-3,8.23,8.23,0,0,1,3.64-1.68l.12,0a3,3,0,0,1,2.88.75A2.25,2.25,0,0,1,62.44,133Z"/><path class="cls-23" d="M73.41,124.18a18.43,18.43,0,0,0-7.1,2l.18,2.22c.52-.26,1.05-.5,1.58-.71-.37,2.88-.6,5.8-.68,8.68l2-.73q0-1.18.09-2.37A15.9,15.9,0,0,0,75.07,129a4.25,4.25,0,0,0,1.24-3.16C76.14,124.63,75.14,124.07,73.41,124.18Zm.56,3.3a13,13,0,0,1-4.33,3.37c.1-1.27.23-2.53.39-3.79a16,16,0,0,1,2.9-.49,2.5,2.5,0,0,1,1.5.22A2.56,2.56,0,0,1,74,127.48Z"/><path class="cls-25" d="M41.49,107l56.27-18.9L96.2,111.86C73.73,109,54.86,110.16,39,119.62Z"/><polygon class="cls-6" points="53.76 194.92 32.15 195.35 25.52 229.03 0 229.03 0 230.29 157.04 232.63 254.02 229.86 333.85 221.19 354.44 216.47 219.13 217.46 156.32 229.86 51.89 228.69 53.76 194.92"/><polygon class="cls-26" points="319.86 175.21 325.31 219.45 354.44 216.47 344.6 175.21 319.86 175.21"/><polygon class="cls-27" points="319.86 175.21 292.08 174.53 297.35 217.64 325.31 219.45 319.86 175.21"/><path class="cls-28" d="M249.45,158.12a18.53,18.53,0,0,1-13.51,12.17c-10.87,2.55-22.81,2.36-27.45.31h0l-.23-6.95Z"/><path class="cls-27" d="M249.45,158.12l3.37,68.72-42.46-.62-1.88-55.62h0c4.64,2.05,16.58,2.24,27.45-.31A18.53,18.53,0,0,0,249.45,158.12Z"/><polygon class="cls-26" points="293.15 183.26 293.15 183.27 283.37 222.42 252.82 226.84 249.45 158.12 291.06 165.23 292.08 174.53 293.15 183.26"/><polygon class="cls-29" points="293.15 183.27 297.35 217.63 296.68 220.5 283.37 222.42 293.15 183.27"/><polygon class="cls-8" points="207.63 153.97 208.25 163.65 208.48 170.6 210.36 226.22 156.32 229.86 155.92 144.79 207.63 153.97"/><polygon class="cls-30" points="208.25 163.65 177.22 228.45 210.36 226.22 208.25 163.65"/><polygon class="cls-23" points="110.59 108.28 134.23 93.47 155.95 86.04 155.92 144.79 108.54 151.49 110.59 108.28"/><polygon class="cls-6" points="134.23 93.47 127.22 89.64 118.75 98.34 110.59 100.54 110.59 108.28 134.23 93.47"/><polygon class="cls-27" points="109.5 67.91 130.3 33.31 127.22 89.64 110.59 108.28 105.17 113.83 107.6 86.53 109.5 67.91"/><polygon class="cls-31" points="155.95 86.04 206.73 108.71 207.63 153.97 155.92 144.79 155.95 86.04"/><path class="cls-32" d="M206.73,108.71a49.39,49.39,0,0,0-10.44,14.82c-3.95,8.89-3,13.88.71,13.78s10.25-2.72,10.25-2.72Z"/><polygon class="cls-26" points="130.3 33.31 176.41 61.58 175.98 94.98 155.95 86.04 134.23 93.47 127.22 89.64 130.3 33.31"/><path class="cls-4" d="M275.65,151.74a30.36,30.36,0,0,1,.08,10.87l-8.85-1.51a30.46,30.46,0,0,0-1-4.1c7.23-2.31,9.32-6.83,9.44-7.11C275.42,150.5,275.54,151.12,275.65,151.74Z"/><path class="cls-33" d="M275.28,149.89c-.12.28-2.21,4.8-9.44,7.11a83.78,83.78,0,0,0-5.66-13.47,72.33,72.33,0,0,0-12.48-17.28l9.94-7.13h0C265.22,126.54,272.5,136.82,275.28,149.89Z"/><path class="cls-34" d="M266.88,161.1l-17.43-3c-.52-10.55-7.9-19.4-13.54-24.68a25.82,25.82,0,0,0-14.22-6.63,15.76,15.76,0,0,0-5.4.24h0l-9.49-15.85-.07-2.48h0a37.35,37.35,0,0,1,15.65.76,35.3,35.3,0,0,1,10.47,4.64,87.23,87.23,0,0,1,14.82,12.15,72.33,72.33,0,0,1,12.48,17.28A83.78,83.78,0,0,1,265.84,157,30.46,30.46,0,0,1,266.88,161.1Z"/><path class="cls-35" d="M257.65,119.11h0l-9.94,7.13a87.23,87.23,0,0,0-14.82-12.15,35.3,35.3,0,0,0-10.47-4.64l9.83-5.56a28.36,28.36,0,0,1,6,1.63C242.22,107.15,250.08,111.7,257.65,119.11Z"/><path class="cls-33" d="M233.55,160.25,216,162.62s-6.7-5.15-8.08-12.62h0l-.44-15.82h0c.15-.29,2.92-5.6,8.56-7l.3-.06a15.76,15.76,0,0,1,5.4-.24S215.9,148.58,233.55,160.25Z"/><path class="cls-10" d="M207.43,134.17h0c.15-.29,2.92-5.6,8.56-7l.3-.06a15.76,15.76,0,0,1,5.4-.24,31.09,31.09,0,0,0-.7,4.25"/><path class="cls-10" d="M227.86,155.34a28.87,28.87,0,0,0,5.69,4.91L216,162.62"/><path class="cls-10" d="M223.42,148.37a26.56,26.56,0,0,0,3.15,5.38"/><path class="cls-33" d="M232.24,103.9l-9.83,5.56a37.35,37.35,0,0,0-15.65-.76l12.05-5.25A54.3,54.3,0,0,1,232.24,103.9Z"/><path class="cls-34" d="M216.29,127h0l-.3.06c-5.64,1.45-8.41,6.76-8.56,7l-.63-23Z"/><path class="cls-34" d="M216,162.62l-7.7,1L207.87,150C209.25,157.47,216,162.62,216,162.62Z"/><line class="cls-10" x1="295.51" y1="153.08" x2="293.82" y2="137.88"/><line class="cls-10" x1="297.9" y1="174.53" x2="296.13" y2="158.58"/><polyline class="cls-10" points="331.93 175.21 319.86 175.21 320.81 182.89"/><line class="cls-10" x1="354.44" y1="216.47" x2="350.72" y2="200.85"/><line class="cls-10" x1="324" y1="208.85" x2="325.31" y2="219.45"/><line class="cls-10" x1="322.51" y1="196.73" x2="323.67" y2="206.17"/><polyline class="cls-10" points="319.86 175.21 292.08 174.53 297.35 217.64 325.31 219.45"/><polyline class="cls-10" points="41.49 107.04 31.62 156.78 49.54 166.88"/><path class="cls-10" d="M13.56,95.67s3.85-16,6.06-19.59c2.06-3.33,12.17-8.79,21.84-10.8.69-.15,1.38-.27,2.07-.38"/><path class="cls-10" d="M100,65.78c1.89.38,3.6.74,5,1.06,2.79.62,4.5,1.07,4.5,1.07l-1.91,18.62"/><path class="cls-10" d="M47.62,64.32c1.1-.14,2.24-.27,3.41-.4l1.85-.19"/><path class="cls-10" d="M49.54,166.88l-17.93-10.1,62.3-10.18,3.85-58.46L41.48,107s-15.78-.6-22.67-4.17S5.6,87.92,42.5,84.32s65.09,2.21,65.09,2.21l-2.43,27.3,5.42-5.55s-2,43.46-2,43.21"/><polyline class="cls-10" points="208.48 170.6 208.47 170.6 208.24 163.65 249.44 158.12"/><polyline class="cls-10" points="252.81 226.84 210.35 226.22 208.47 170.6 208.48 170.6"/><line class="cls-10" x1="252.81" y1="226.84" x2="251.33" y2="196.55"/><polyline class="cls-10" points="249.44 158.12 291.05 165.23 292.07 174.53 293.14 183.26 293.14 183.27"/><line class="cls-10" x1="156.14" y1="193.02" x2="156.1" y2="185.19"/><polyline class="cls-10" points="155.95 152.97 155.91 144.79 207.62 153.97 208.24 163.65 208.47 170.6 210.35 226.22 156.31 229.86 156.17 200.81"/><polyline class="cls-10" points="130.29 33.31 109.49 67.91 107.59 86.53 105.17 113.83 110.58 108.28 127.22 89.64"/><polyline class="cls-10" points="194.35 103.19 206.72 108.71 207.62 153.97 155.91 144.79 155.93 116.92"/><polyline class="cls-10" points="167.81 91.34 155.94 86.04 134.22 93.47 127.22 89.64 128.03 74.64"/><line class="cls-10" x1="175.97" y1="94.98" x2="167.81" y2="91.34"/><line class="cls-10" x1="130.29" y1="33.31" x2="139.9" y2="39.2"/><path class="cls-10" d="M254.5,116.22c9,7.85,18.35,19.73,21.14,35.52a30.13,30.13,0,0,1,.08,10.87l-26.28-4.49-41.2,5.53-1.52-54.94,12.08-5.26s10.56-1.15,18.63,1.78"/><path class="cls-10" d="M240.82,106.75c1,.49,2,1.08,3.17,1.76"/><path class="cls-10" d="M207.43,134.17s2.75-5.57,8.55-7.06,14.28,1,19.92,6.33,13,14.13,13.54,24.68"/><path class="cls-10" d="M224,109.91a37.2,37.2,0,0,0-17.24-1.2l9.06,18.46"/><path class="cls-10" d="M266.87,161.1s-.64-4.25-3.93-11.77"/><polyline class="cls-10" points="110.58 108.28 112.06 107.36 134.22 93.47"/><line class="cls-10" x1="155.94" y1="86.04" x2="155.95" y2="98.99"/><line class="cls-36" x1="269.94" y1="101.41" x2="271.96" y2="139.53"/><path class="cls-2" d="M156,144.79l.11,20.08-14.88.53C139.58,155.47,144.54,146.36,156,144.79Z"/><polyline class="cls-10" points="155.95 152.97 155.91 144.79 207.62 153.97 208.24 163.65 208.47 170.6 210.35 226.22 156.31 229.86 156.17 200.81"/><path class="cls-4" d="M156,144.79,56,158.53c-5.55,2.61-8.36,11.42-7.75,17.55h0a2.84,2.84,0,0,0,2.38,2.64c1.33,0,2.39-1.39,2.36-3.18h0l.3,0a2.86,2.86,0,0,0,2.39,2.68c1.33,0,2.39-1.39,2.36-3.17V175l.24,0c.22,1.52,1.22,2.71,2.41,2.74s2.38-1.39,2.35-3.17a.37.37,0,0,0,0-.11l.19,0c.21,1.55,1.22,2.76,2.42,2.79S68.06,175.75,68,174c0-.05,0-.11,0-.16l.14,0c.19,1.57,1.21,2.8,2.43,2.84s2.39-1.39,2.35-3.17a1.49,1.49,0,0,0,0-.21H73c.19,1.59,1.22,2.85,2.45,2.88s2.39-1.38,2.35-3.16a2.23,2.23,0,0,0,0-.27h0c.17,1.62,1.21,2.9,2.46,2.94s2.36-1.35,2.34-3.11A2.91,2.91,0,0,0,85,175.12c1.29,0,2.29-1.27,2.33-2.94a2.88,2.88,0,0,0,2.4,2.45c1.24,0,2.22-1.19,2.31-2.78a2.84,2.84,0,0,0,2.37,2.29c1.21,0,2.16-1.11,2.3-2.63a2.79,2.79,0,0,0,2.34,2.14c1.17,0,2.11-1,2.29-2.49a2.76,2.76,0,0,0,2.31,2c1.15,0,2.07-1,2.27-2.42a2.74,2.74,0,0,0,2.28,1.95c1.14,0,2-1,2.26-2.35a2.73,2.73,0,0,0,2.25,1.88A2.42,2.42,0,0,0,115,170a2.71,2.71,0,0,0,2.23,1.81,2.39,2.39,0,0,0,2.23-2.21,2.69,2.69,0,0,0,2.2,1.75,2.36,2.36,0,0,0,2.21-2.14,2.69,2.69,0,0,0,2.19,1.68,2.35,2.35,0,0,0,2.19-2.08,2.66,2.66,0,0,0,2.16,1.62,2.29,2.29,0,0,0,2.17-2,2.68,2.68,0,0,0,2.14,1.55,2.28,2.28,0,0,0,2.16-1.94,2.68,2.68,0,0,0,2.11,1.5c1.36,0,2.37-1.36,2.27-3.14a4,4,0,0,0-.17-.93l.11,0C139.39,156,147.61,146.36,156,144.79Z"/><path class="cls-33" d="M116.24,150.65a4,4,0,0,1,.47-.46l-5,.68a5.53,5.53,0,0,0-.52.53c-7.69,4-10,11.35-9.75,19.92a2.7,2.7,0,0,0,2.23,1.85c1.15,0,2.07-1,2.27-2.42,0,.05,0,.09.07.14C105.82,162,108.17,154.57,116.24,150.65Z"/><path class="cls-33" d="M126.17,149.17a3.06,3.06,0,0,1,.33-.33l-4.87.67a4.55,4.55,0,0,0-.4.4c-8.44,3.78-10.85,11.43-10.68,20.56a2.69,2.69,0,0,0,2.19,1.76A2.42,2.42,0,0,0,115,170l.06.1C114.9,160.64,117.35,152.83,126.17,149.17Z"/><path class="cls-33" d="M145.37,146.3l.07-.06-4.65.64-.15.13c-9.88,3.27-12.46,11.57-12.39,21.79a2.66,2.66,0,0,0,2.14,1.58,2.29,2.29,0,0,0,2.17-2v0C132.52,157.91,135.13,149.44,145.37,146.3Z"/><path class="cls-33" d="M135.87,147.72s.1-.09.21-.2l-4.76.66-.28.26c-9.17,3.53-11.67,11.51-11.56,21.19a2.68,2.68,0,0,0,2.16,1.67,2.36,2.36,0,0,0,2.21-2.14l0,.05C123.79,159.26,126.34,151.12,135.87,147.72Z"/><path class="cls-33" d="M106.1,152.17a4.61,4.61,0,0,1,.58-.6l-5.11.7a5.24,5.24,0,0,0-.63.67c-6.91,4.3-9.07,11.23-8.76,19.22a2.7,2.7,0,0,0,2.26,2c1.21,0,2.16-1.11,2.3-2.63,0,.09.07.17.1.25C96.56,163.47,98.79,156.35,106.1,152.17Z"/><path class="cls-33" d="M139,169.49c1.36,0,2.37-1.36,2.27-3.14a4,4,0,0,0-.17-.93l.11,0c-1.74-9.18,6-18.48,14.07-20.43l.12-.1-5.33.74c-10.57,3-13.23,11.63-13.18,22.38A2.68,2.68,0,0,0,139,169.49Z"/><path class="cls-33" d="M64,157.43l-5.62.77c-4.15,5.58-5.92,11.36-5.2,17.31h.15a2.86,2.86,0,0,0,2.39,2.68c1.33,0,2.39-1.39,2.36-3.17V175l.15,0a22.31,22.31,0,0,1,4.91-16.35C63.37,158.22,63.68,157.83,64,157.43Z"/><path class="cls-33" d="M77.92,173.32c-.42-7,1.53-13.37,7.19-18a8.6,8.6,0,0,1,.77-.88l-5.37.74a8.39,8.39,0,0,0-.8,1c-5.19,4.71-7.07,10.77-6.66,17.42a2.86,2.86,0,0,0,2.39,2.59c1.34,0,2.39-1.38,2.35-3.16a2.23,2.23,0,0,0,0-.27h0A3.44,3.44,0,0,0,77.92,173.32Z"/><path class="cls-33" d="M95.72,153.71a6.06,6.06,0,0,1,.68-.73l-5.23.72a6.61,6.61,0,0,0-.72.8c-6.1,4.55-8.12,11.1-7.73,18.49A2.75,2.75,0,0,0,85,175.12c1.29,0,2.29-1.27,2.33-2.94,0,.13.07.26.11.39C87.13,164.88,89.22,158.14,95.72,153.71Z"/><path class="cls-33" d="M74.25,156.92a9.39,9.39,0,0,1,.83-1l-5.51.75c-.32.39-.65.78-.85,1.09a21.63,21.63,0,0,0-5.5,16.61h0c.21,1.55,1.22,2.76,2.42,2.79S68.06,175.75,68,174c0-.05,0-.11,0-.16l.14,0a.68.68,0,0,0,0,.14A21.12,21.12,0,0,1,74.25,156.92Z"/><line class="cls-10" x1="290.99" y1="112.54" x2="287.69" y2="81.88"/><polyline class="cls-10" points="274.52 79.07 279.54 77.95 287.69 84.32"/><line class="cls-10" x1="216.69" y1="2.42" x2="286.39" y2="83.31"/><line class="cls-10" x1="223.02" y1="9.77" x2="222.37" y2="14.27"/><line class="cls-10" x1="230.9" y1="18.91" x2="228.32" y2="20.79"/></g></g></g></svg>